<?xml version="1.0" encoding="UTF-8" standalone="no"?>
<!-- Created with Serif DrawPlus 12,0,4,27 (May 24, 08:37:51) (http://www.serif.com) -->

<svg
   xmlns:dc="http://purl.org/dc/elements/1.1/"
   xmlns:cc="http://creativecommons.org/ns#"
   xmlns:rdf="http://www.w3.org/1999/02/22-rdf-syntax-ns#"
   xmlns:svg="http://www.w3.org/2000/svg"
   xmlns="http://www.w3.org/2000/svg"
   xmlns:sodipodi="http://sodipodi.sourceforge.net/DTD/sodipodi-0.dtd"
   xmlns:inkscape="http://www.inkscape.org/namespaces/inkscape"
   version="1.1"
   width="793.7"
   height="1122.52"
   id="svg226"
   sodipodi:docname="ProgrammingIcons.svg"
   inkscape:version="0.92.5 (2060ec1f9f, 2020-04-08)">
  <metadata
     id="metadata230">
    <rdf:RDF>
      <cc:Work
         rdf:about="">
        <dc:format>image/svg+xml</dc:format>
        <dc:type
           rdf:resource="http://purl.org/dc/dcmitype/StillImage" />
      </cc:Work>
    </rdf:RDF>
  </metadata>
  <sodipodi:namedview
     pagecolor="#ffffff"
     bordercolor="#666666"
     borderopacity="1"
     objecttolerance="10"
     gridtolerance="10"
     guidetolerance="10"
     inkscape:pageopacity="0"
     inkscape:pageshadow="2"
     inkscape:window-width="2030"
     inkscape:window-height="2117"
     id="namedview228"
     showgrid="true"
     inkscape:zoom="1.6819299"
     inkscape:cx="191.40501"
     inkscape:cy="630.51566"
     inkscape:window-x="2235"
     inkscape:window-y="722"
     inkscape:window-maximized="0"
     inkscape:current-layer="svg226">
    <inkscape:grid
       type="xygrid"
       id="grid4740" />
  </sodipodi:namedview>
  <defs
     id="defs182">
    <radialGradient
       id="grad_dp_001"
       gradientUnits="userSpaceOnUse"
       cx="140.133"
       cy="348.478"
       gradientTransform="matrix(1.6229,-188.388,150.596,1.29733,-52566.7,26295.8)"
       r="1">
      <stop
         offset="0"
         stop-color="#a8b0bc"
         id="stop2" />
      <stop
         offset="1"
         stop-color="#5f5f5f"
         id="stop4" />
    </radialGradient>
    <radialGradient
       id="grad_dp_002"
       gradientUnits="userSpaceOnUse"
       cx="140.132"
       cy="348.475"
       gradientTransform="matrix(1.6229,-188.388,150.596,1.29733,-52566.2,26295.5)"
       r="1">
      <stop
         offset="0"
         stop-color="#a8b0bc"
         id="stop7" />
      <stop
         offset="1"
         stop-color="#5f5f5f"
         id="stop9" />
    </radialGradient>
    <radialGradient
       id="grad_dp_003"
       gradientUnits="userSpaceOnUse"
       cx="366.93"
       cy="348.519"
       gradientTransform="matrix(1.6229,-188.388,150.596,1.29733,-52714.1,69021.5)"
       r="1">
      <stop
         offset="0"
         stop-color="#a8b0bc"
         id="stop12" />
      <stop
         offset="1"
         stop-color="#5f5f5f"
         id="stop14" />
    </radialGradient>
    <radialGradient
       id="grad_dp_004"
       gradientUnits="userSpaceOnUse"
       cx="366.928"
       cy="348.516"
       gradientTransform="matrix(1.6229,-188.388,150.596,1.29733,-52713.6,69021.2)"
       r="1">
      <stop
         offset="0"
         stop-color="#a8b0bc"
         id="stop17" />
      <stop
         offset="1"
         stop-color="#5f5f5f"
         id="stop19" />
    </radialGradient>
    <radialGradient
       id="grad_dp_005"
       gradientUnits="userSpaceOnUse"
       cx="139.002"
       cy="120.603"
       gradientTransform="matrix(1.6229,-188.388,150.596,1.29733,-18248.9,26150.5)"
       r="1">
      <stop
         offset="0"
         stop-color="#a8b0bc"
         id="stop22" />
      <stop
         offset="1"
         stop-color="#5f5f5f"
         id="stop24" />
    </radialGradient>
    <radialGradient
       id="grad_dp_006"
       gradientUnits="userSpaceOnUse"
       cx="139.001"
       cy="120.6"
       gradientTransform="matrix(1.6229,-188.388,150.596,1.29733,-18248.4,26150.2)"
       r="1">
      <stop
         offset="0"
         stop-color="#a8b0bc"
         id="stop27" />
      <stop
         offset="1"
         stop-color="#5f5f5f"
         id="stop29" />
    </radialGradient>
    <radialGradient
       id="grad_dp_007"
       gradientUnits="userSpaceOnUse"
       cx="365.799"
       cy="120.544"
       gradientTransform="matrix(1.6229,-188.388,150.596,1.29733,-18381.3,68876.3)"
       r="1">
      <stop
         offset="0"
         stop-color="#a8b0bc"
         id="stop32" />
      <stop
         offset="1"
         stop-color="#5f5f5f"
         id="stop34" />
    </radialGradient>
    <radialGradient
       id="grad_dp_008"
       gradientUnits="userSpaceOnUse"
       cx="365.797"
       cy="120.54"
       gradientTransform="matrix(1.6229,-188.388,150.596,1.29733,-18380.7,68876)"
       r="1">
      <stop
         offset="0"
         stop-color="#a8b0bc"
         id="stop37" />
      <stop
         offset="1"
         stop-color="#5f5f5f"
         id="stop39" />
    </radialGradient>
    <radialGradient
       id="grad_dp_009"
       gradientUnits="userSpaceOnUse"
       cx="138.693"
       cy="575.006"
       gradientTransform="matrix(1.6229,-188.388,150.596,1.29733,-86680,25957.1)"
       r="1">
      <stop
         offset="0"
         stop-color="#a8b0bc"
         id="stop42" />
      <stop
         offset="1"
         stop-color="#5f5f5f"
         id="stop44" />
    </radialGradient>
    <radialGradient
       id="grad_dp_010"
       gradientUnits="userSpaceOnUse"
       cx="138.691"
       cy="575.003"
       gradientTransform="matrix(1.6229,-188.388,150.596,1.29733,-86679.5,25956.8)"
       r="1">
      <stop
         offset="0"
         stop-color="#a8b0bc"
         id="stop47" />
      <stop
         offset="1"
         stop-color="#5f5f5f"
         id="stop49" />
    </radialGradient>
    <radialGradient
       id="grad_dp_011"
       gradientUnits="userSpaceOnUse"
       cx="362.958"
       cy="574.438"
       gradientTransform="matrix(1.6229,-188.388,150.596,1.29733,-86734.1,68206.2)"
       r="1">
      <stop
         offset="0"
         stop-color="#a8b0bc"
         id="stop52" />
      <stop
         offset="1"
         stop-color="#5f5f5f"
         id="stop54" />
    </radialGradient>
    <radialGradient
       id="grad_dp_012"
       gradientUnits="userSpaceOnUse"
       cx="363.135"
       cy="574.079"
       gradientTransform="matrix(1.6229,-188.388,150.596,1.29733,-86680.2,68239.5)"
       r="1">
      <stop
         offset="0"
         stop-color="#a8b0bc"
         id="stop57" />
      <stop
         offset="1"
         stop-color="#5f5f5f"
         id="stop59" />
    </radialGradient>
    <radialGradient
       id="grad_dp_013"
       gradientUnits="userSpaceOnUse"
       cx="430.959"
       cy="583.716"
       gradientTransform="matrix(-47.3497,-24.902,29.0068,-55.1547,3904.99,43510.1)"
       r="1">
      <stop
         offset="0"
         stop-color="#0c357d"
         id="stop62" />
      <stop
         offset="1"
         stop-color="#6299ff"
         id="stop64" />
    </radialGradient>
    <radialGradient
       id="grad_dp_014"
       gradientUnits="userSpaceOnUse"
       cx="208.343"
       cy="583.782"
       gradientTransform="matrix(-47.3497,-24.902,29.0068,-55.1547,-6860.34,37970.2)"
       r="1">
      <stop
         offset="0"
         stop-color="#0c357d"
         id="stop67" />
      <stop
         offset="1"
         stop-color="#6299ff"
         id="stop69" />
    </radialGradient>
    <radialGradient
       id="grad_dp_015"
       gradientUnits="userSpaceOnUse"
       cx="208.343"
       cy="583.782"
       gradientTransform="matrix(-47.3497,-24.902,29.0068,-55.1547,-6860.34,37970.2)"
       r="1">
      <stop
         offset="0"
         stop-color="#0c357d"
         id="stop72" />
      <stop
         offset="1"
         stop-color="#6299ff"
         id="stop74" />
    </radialGradient>
    <radialGradient
       id="grad_dp_016"
       gradientUnits="userSpaceOnUse"
       cx="217.172"
       cy="406.959"
       gradientTransform="matrix(-1.41683,-152.716,107.212,-0.994666,-43106,33977.3)"
       r="1">
      <stop
         offset="0"
         stop-color="#0c357d"
         id="stop77" />
      <stop
         offset="1"
         stop-color="#6299ff"
         id="stop79" />
    </radialGradient>
    <radialGradient
       id="grad_dp_017"
       gradientUnits="userSpaceOnUse"
       cx="191.835"
       cy="151.442"
       gradientTransform="matrix(-1.41683,-152.716,107.212,-0.994666,-15772.8,29598.4)"
       r="1">
      <stop
         offset="0"
         stop-color="#0c357d"
         id="stop82" />
      <stop
         offset="1"
         stop-color="#6299ff"
         id="stop84" />
    </radialGradient>
    <radialGradient
       id="grad_dp_018"
       gradientUnits="userSpaceOnUse"
       cx="419.664"
       cy="148.136"
       gradientTransform="matrix(0.289945,-151.947,104.811,0.2,-15228.3,63885.2)"
       r="1">
      <stop
         offset="0"
         stop-color="#0c357d"
         id="stop87" />
      <stop
         offset="1"
         stop-color="#6299ff"
         id="stop89" />
    </radialGradient>
    <linearGradient
       id="grad_dp_019"
       gradientUnits="userSpaceOnUse"
       x1="207.384"
       y1="409.033"
       x2="214.943"
       y2="461.948">
      <stop
         offset="0"
         stop-color="white"
         id="stop92" />
      <stop
         offset="1"
         stop-color="black"
         id="stop94" />
    </linearGradient>
    <radialGradient
       id="grad_dp_020"
       gradientUnits="userSpaceOnUse"
       cx="191.825"
       cy="152.256"
       gradientTransform="matrix(-1.41683,-152.716,107.212,-0.994666,-15860.1,29598.5)"
       r="1">
      <stop
         offset="0"
         stop-color="#0c357d"
         id="stop97" />
      <stop
         offset="1"
         stop-color="#6299ff"
         id="stop99" />
    </radialGradient>
    <radialGradient
       id="grad_dp_021"
       gradientUnits="userSpaceOnUse"
       cx="217.172"
       cy="406.959"
       gradientTransform="matrix(-1.41683,-152.716,107.212,-0.994666,-43106,33977.3)"
       r="1">
      <stop
         offset="0"
         stop-color="#0c357d"
         id="stop102" />
      <stop
         offset="1"
         stop-color="#6299ff"
         id="stop104" />
    </radialGradient>
    <radialGradient
       id="grad_dp_022"
       gradientUnits="userSpaceOnUse"
       cx="350.163"
       cy="406.981"
       gradientTransform="matrix(-1.41683,-152.716,107.212,-0.994666,-42787,54287.3)"
       r="1">
      <stop
         offset="0"
         stop-color="#0c357d"
         id="stop107" />
      <stop
         offset="1"
         stop-color="#6299ff"
         id="stop109" />
    </radialGradient>
    <linearGradient
       id="grad_dp_023"
       gradientUnits="userSpaceOnUse"
       x1="359.948"
       y1="409.033"
       x2="352.389"
       y2="461.948">
      <stop
         offset="0"
         stop-color="white"
         id="stop112" />
      <stop
         offset="1"
         stop-color="black"
         id="stop114" />
    </linearGradient>
    <radialGradient
       id="grad_dp_024"
       gradientUnits="userSpaceOnUse"
       cx="422.16"
       cy="406.2"
       gradientTransform="matrix(-0.313034,-151.953,108.087,-0.222667,-43350.6,64645.1)"
       r="1">
      <stop
         offset="0"
         stop-color="#0c357d"
         id="stop117" />
      <stop
         offset="1"
         stop-color="#6299ff"
         id="stop119" />
    </radialGradient>
    <radialGradient
       id="grad_dp_025"
       gradientUnits="userSpaceOnUse"
       cx="111.71"
       cy="625.622"
       gradientTransform="matrix(0.317712,-36.8802,29.4816,0.253976,-18368.1,4586.62)"
       r="1">
      <stop
         offset="0"
         stop-color="#a8b0bc"
         id="stop122" />
      <stop
         offset="1"
         stop-color="#5f5f5f"
         id="stop124" />
    </radialGradient>
    <radialGradient
       id="grad_dp_026"
       gradientUnits="userSpaceOnUse"
       cx="157.079"
       cy="625.342"
       gradientTransform="matrix(0.317712,-36.8802,29.4816,0.253976,-18328.9,6259.61)"
       r="1">
      <stop
         offset="0"
         stop-color="#a8b0bc"
         id="stop127" />
      <stop
         offset="1"
         stop-color="#5f5f5f"
         id="stop129" />
    </radialGradient>
    <radialGradient
       id="grad_dp_027"
       gradientUnits="userSpaceOnUse"
       cx="122.17"
       cy="629.066"
       gradientTransform="matrix(3.67945,-30.0108,32.6253,4,-20850.8,1779.22)"
       r="1">
      <stop
         offset="0"
         stop-color="#0c357d"
         id="stop132" />
      <stop
         offset="1"
         stop-color="#6299ff"
         id="stop134" />
    </radialGradient>
    <radialGradient
       id="grad_dp_028"
       gradientUnits="userSpaceOnUse"
       cx="167.047"
       cy="630.538"
       gradientTransform="matrix(1.58382,-31.9718,32.4613,1.60807,-20565.6,4957.39)"
       r="1">
      <stop
         offset="0"
         stop-color="#0c357d"
         id="stop137" />
      <stop
         offset="1"
         stop-color="#6299ff"
         id="stop139" />
    </radialGradient>
    <radialGradient
       id="grad_dp_029"
       gradientUnits="userSpaceOnUse"
       cx="159.569"
       cy="608.812"
       gradientTransform="matrix(-1.38963,-24.9311,77.8867,-4.34133,-47037,7230.08)"
       r="1">
      <stop
         offset="0"
         stop-color="#0c357d"
         id="stop142" />
      <stop
         offset="1"
         stop-color="#6299ff"
         id="stop144" />
    </radialGradient>
    <radialGradient
       id="grad_dp_030"
       gradientUnits="userSpaceOnUse"
       cx="217.256"
       cy="408.445"
       gradientTransform="matrix(-1.41683,-152.716,107.212,-0.994666,-43265.2,33993.1)"
       r="1">
      <stop
         offset="0"
         stop-color="#0c357d"
         id="stop147" />
      <stop
         offset="1"
         stop-color="#6299ff"
         id="stop149" />
    </radialGradient>
    <radialGradient
       id="grad_dp_031"
       gradientUnits="userSpaceOnUse"
       cx="430.957"
       cy="583.553"
       gradientTransform="matrix(-47.3497,-24.902,29.0068,-55.1547,3909.64,43500.9)"
       r="1">
      <stop
         offset="0"
         stop-color="#0c357d"
         id="stop152" />
      <stop
         offset="1"
         stop-color="#6299ff"
         id="stop154" />
    </radialGradient>
    <radialGradient
       id="grad_dp_032"
       gradientUnits="userSpaceOnUse"
       cx="334.373"
       cy="625.26"
       gradientTransform="matrix(0.317712,-36.8802,29.4816,0.253976,-18205.5,12798.2)"
       r="1">
      <stop
         offset="0"
         stop-color="#a8b0bc"
         id="stop157" />
      <stop
         offset="1"
         stop-color="#5f5f5f"
         id="stop159" />
    </radialGradient>
    <radialGradient
       id="grad_dp_033"
       gradientUnits="userSpaceOnUse"
       cx="379.641"
       cy="625.001"
       gradientTransform="matrix(0.317712,-36.8802,29.4816,0.253976,-18167,14467.5)"
       r="1">
      <stop
         offset="0"
         stop-color="#a8b0bc"
         id="stop162" />
      <stop
         offset="1"
         stop-color="#5f5f5f"
         id="stop164" />
    </radialGradient>
    <radialGradient
       id="grad_dp_034"
       gradientUnits="userSpaceOnUse"
       cx="344.757"
       cy="628.71"
       gradientTransform="matrix(3.67945,-30.0108,32.6253,4,-21435.6,8460.31)"
       r="1">
      <stop
         offset="0"
         stop-color="#0c357d"
         id="stop167" />
      <stop
         offset="1"
         stop-color="#6299ff"
         id="stop169" />
    </radialGradient>
    <radialGradient
       id="grad_dp_035"
       gradientUnits="userSpaceOnUse"
       cx="389.708"
       cy="630.159"
       gradientTransform="matrix(1.58382,-31.9718,32.4613,1.60807,-20683.3,12076.5)"
       r="1">
      <stop
         offset="0"
         stop-color="#0c357d"
         id="stop172" />
      <stop
         offset="1"
         stop-color="#6299ff"
         id="stop174" />
    </radialGradient>
    <radialGradient
       id="grad_dp_036"
       gradientUnits="userSpaceOnUse"
       cx="382.133"
       cy="608.483"
       gradientTransform="matrix(-1.38963,-24.9311,77.8867,-4.34133,-46479.6,12777.1)"
       r="1">
      <stop
         offset="0"
         stop-color="#0c357d"
         id="stop177" />
      <stop
         offset="1"
         stop-color="#6299ff"
         id="stop179" />
    </radialGradient>
    <radialGradient
       id="grad_dp_011-3"
       gradientUnits="userSpaceOnUse"
       cx="362.95801"
       cy="574.43799"
       gradientTransform="matrix(1.6229,-188.388,150.596,1.29733,-86732.481,68434.053)"
       r="1">
      <stop
         offset="0"
         stop-color="#a8b0bc"
         id="stop52-6" />
      <stop
         offset="1"
         stop-color="#5f5f5f"
         id="stop54-7" />
    </radialGradient>
    <radialGradient
       id="grad_dp_012-5"
       gradientUnits="userSpaceOnUse"
       cx="363.13501"
       cy="574.07898"
       gradientTransform="matrix(1.6229,-188.388,150.596,1.29733,-86678.581,68467.353)"
       r="1">
      <stop
         offset="0"
         stop-color="#a8b0bc"
         id="stop57-3" />
      <stop
         offset="1"
         stop-color="#5f5f5f"
         id="stop59-5" />
    </radialGradient>
    <radialGradient
       id="grad_dp_009-6"
       gradientUnits="userSpaceOnUse"
       cx="138.69299"
       cy="575.00598"
       gradientTransform="matrix(1.6229,-188.388,150.596,1.29733,-86678.381,26184.953)"
       r="1">
      <stop
         offset="0"
         stop-color="#a8b0bc"
         id="stop42-2" />
      <stop
         offset="1"
         stop-color="#5f5f5f"
         id="stop44-9" />
    </radialGradient>
    <radialGradient
       id="grad_dp_010-1"
       gradientUnits="userSpaceOnUse"
       cx="138.69099"
       cy="575.00299"
       gradientTransform="matrix(1.6229,-188.388,150.596,1.29733,-86677.881,26184.653)"
       r="1"
       fx="138.69099"
       fy="575.00299"
       fr="0"
       spreadMethod="pad">
      <stop
         offset="0"
         stop-color="#a8b0bc"
         id="stop47-2" />
      <stop
         offset="1"
         stop-color="#5f5f5f"
         id="stop49-7" />
    </radialGradient>
    <filter
       inkscape:collect="always"
       style="color-interpolation-filters:sRGB"
       id="filter1260"
       x="-0.082799562"
       width="1.1655991"
       y="-0.082800438"
       height="1.1656009">
      <feGaussianBlur
         inkscape:collect="always"
         stdDeviation="6.520707"
         id="feGaussianBlur1262" />
    </filter>
  </defs>
  <path
     inkscape:connector-curvature="0"
     style="fill:url(#grad_dp_001);fill-rule:evenodd;stroke:#545454;stroke-width:14;stroke-linejoin:round"
     d="m 75.56,293.645 c 0,-16.074 13.032,-29.106 29.107,-29.106 H 235.46 c 16.075,0 29.107,13.032 29.107,29.106 v 130.792 c 0,16.075 -13.032,29.107 -29.107,29.107 H 104.667 c -16.075,0 -29.107,-13.032 -29.107,-29.107 z"
     id="dp_path001" />
  <path
     inkscape:connector-curvature="0"
     style="fill:url(#grad_dp_002);fill-rule:evenodd;stroke:#d7d7d7;stroke-width:6.66666985;stroke-linejoin:round"
     d="m 75.56,293.643 c 0,-16.075 13.032,-29.107 29.107,-29.107 H 235.46 c 16.075,0 29.107,13.032 29.107,29.107 v 130.792 c 0,16.074 -13.032,29.106 -29.107,29.106 H 104.667 c -16.075,0 -29.107,-13.032 -29.107,-29.106 z"
     id="dp_path002" />
  <path
     inkscape:connector-curvature="0"
     style="fill:url(#grad_dp_009);fill-rule:evenodd;stroke:#545454;stroke-width:14;stroke-linejoin:round"
     d="m 74.06,520.145 c 0,-16.074 13.032,-29.106 29.107,-29.106 H 233.96 c 16.075,0 29.107,13.032 29.107,29.106 v 130.792 c 0,16.075 -13.032,29.107 -29.107,29.107 H 103.167 c -16.075,0 -29.107,-13.032 -29.107,-29.107 z"
     id="dp_path009" />
  <path
     inkscape:connector-curvature="0"
     style="fill:url(#grad_dp_010);fill-rule:evenodd;stroke:#d7d7d7;stroke-width:6.66666985;stroke-linejoin:round"
     d="m 74.06,520.143 c 0,-16.075 13.032,-29.107 29.107,-29.107 H 233.96 c 16.075,0 29.107,13.032 29.107,29.107 v 130.792 c 0,16.074 -13.032,29.106 -29.107,29.106 H 103.167 c -16.075,0 -29.107,-13.032 -29.107,-29.106 z"
     id="dp_path010" />
  <path
     inkscape:connector-curvature="0"
     style="fill:url(#grad_dp_011);fill-rule:evenodd;stroke:#545454;stroke-width:14;stroke-linejoin:round"
     d="m 298.381,519.667 c 0,-16.075 13.032,-29.107 29.107,-29.107 h 130.793 c 16.075,0 29.107,13.032 29.107,29.107 v 130.792 c 0,16.074 -13.032,29.106 -29.107,29.106 H 327.488 c -16.075,0 -29.107,-13.032 -29.107,-29.106 z"
     id="dp_path011" />
  <path
     inkscape:connector-curvature="0"
     style="fill:url(#grad_dp_012);fill-rule:evenodd;stroke:#d7d7d7;stroke-width:6.66666985;stroke-linejoin:round"
     d="m 298.568,519.287 c 0,-16.075 13.032,-29.107 29.107,-29.107 h 130.793 c 16.075,0 29.107,13.032 29.107,29.107 v 130.792 c 0,16.074 -13.032,29.106 -29.107,29.106 H 327.675 c -16.075,0 -29.107,-13.032 -29.107,-29.106 z"
     id="dp_path012" />
  <path
     inkscape:connector-curvature="0"
     style="fill:url(#grad_dp_013);fill-rule:evenodd;stroke:#000000;stroke-width:14;stroke-linejoin:round"
     d="m 438.425,604.965 0.002,-37.794 c -0.295,-6.434 -10.622,-19.222 -30.236,0 l -7.56,7.56 -15.118,-15.119 15.118,-15.119 c 22.986,-18.937 60.09,-6.634 60.473,22.678 v 37.794 h 15.117 L 450,635.201 423.308,604.965 Z"
     id="dp_path013" />
  <path
     inkscape:connector-curvature="0"
     style="fill:url(#grad_dp_014);fill-rule:evenodd;stroke:#000000;stroke-width:14;stroke-linejoin:round"
     d="M 215.832,604.995 215.831,567.2 c -0.295,-6.433 -10.622,-19.221 -30.236,0 l -7.56,7.56 7.56,7.559 h -30.238 v -30.238 l 7.56,7.56 15.118,-15.118 c 22.986,-18.938 60.09,-6.635 60.473,22.677 l 10e-4,37.795 c 0,0 -22.677,0 -22.677,0 z"
     id="dp_path014" />
  <path
     inkscape:connector-curvature="0"
     style="fill:url(#grad_dp_015);fill-rule:evenodd;stroke:#d8eefb;stroke-width:4.66666985;stroke-linejoin:round"
     d="M 215.831,604.995 V 567.2 c -0.295,-6.433 -10.622,-19.221 -30.236,0 l -7.56,7.56 7.56,7.559 h -30.238 v -30.238 l 7.56,7.56 15.118,-15.118 c 22.986,-18.938 60.09,-6.635 60.473,22.677 v 37.795 c 0,0 -22.677,0 -22.677,0 z"
     id="dp_path015" />
  <path
     inkscape:connector-curvature="0"
     style="fill:url(#grad_dp_016);fill-rule:evenodd;stroke:#000000;stroke-width:14;stroke-linejoin:round"
     d="m 169.588,431.712 v -37.796 c 0.04,-14.787 -1.651,-15.615 -15.119,-15.119 v 37.795 l -60.0623,-68.031 60.0643,-68.03 -0.002,37.794 h 45.355 c 22.879,-0.321 29.359,7.358 30.237,30.236 0,27.716 -0.001,55.434 -0.001,83.15 z"
     id="dp_path016" />
  <g
     id="g4874">
    <path
       id="dp_path007"
       d="m 301.203,65.744 c 0,-16.0747 13.032,-29.1067 29.106,-29.1067 h 130.794 c 16.074,0 29.106,13.032 29.106,29.1067 v 130.792 c 0,16.075 -13.032,29.107 -29.106,29.107 H 330.309 c -16.074,0 -29.106,-13.032 -29.106,-29.107 z"
       style="fill:url(#grad_dp_007);fill-rule:evenodd;stroke:#545454;stroke-width:14;stroke-linejoin:round"
       inkscape:connector-curvature="0" />
    <path
       id="dp_path008"
       d="m 301.203,65.7413 c 0,-16.0746 13.032,-29.1066 29.106,-29.1066 h 130.794 c 16.074,0 29.106,13.032 29.106,29.1066 V 196.533 c 0,16.075 -13.032,29.107 -29.106,29.107 H 330.309 c -16.074,0 -29.106,-13.032 -29.106,-29.107 z"
       style="fill:url(#grad_dp_008);fill-rule:evenodd;stroke:#d7d7d7;stroke-width:6.66666985;stroke-linejoin:round"
       inkscape:connector-curvature="0" />
    <path
       id="dp_path019"
       d="m 366.719,57.9413 v 75.4237 l -37.795,0.167 68.031,75.424 68.03,-75.393 -37.794,-0.031 V 57.9413 Z"
       inkscape:connector-curvature="0"
       style="fill:none;fill-rule:evenodd;stroke:#000000;stroke-width:14;stroke-linejoin:round" />
    <path
       id="dp_path020"
       d="m 366.719,57.9413 v 75.5907 h -37.796 l 68.032,75.424 68.03,-75.591 H 427.191 V 57.7747 Z"
       style="fill:url(#grad_dp_018);fill-rule:evenodd;stroke:#d8eefb;stroke-width:4.66666985;stroke-linejoin:round"
       inkscape:connector-curvature="0" />
  </g>
  <path
     inkscape:connector-curvature="0"
     style="fill:url(#grad_dp_019);fill-rule:evenodd;stroke:#d8eefb;stroke-width:4.66666985;stroke-linejoin:round"
     d="m 94.4067,347.717 60.0643,-67.188 v 37.796 h 45.353 c 14.944,-0.25 30.332,14.519 30.236,30.236 -0.096,15.717 -0.012,55.152 0,83.15 h -60.472 v -37.795 c -0.539,-16.04 0.421,-15.579 -15.117,-15.119 0,12.599 -0.002,25.196 -0.002,37.795 0,0 -60.0623,-68.875 -60.0623,-68.875 z"
     id="dp_path021" />
  <g
     id="g4868">
    <g
       id="g4832">
      <path
         inkscape:connector-curvature="0"
         style="fill:url(#grad_dp_005);fill-rule:evenodd;stroke:#545454;stroke-width:14;stroke-linejoin:round"
         d="m 74.4,65.712 c 0,-16.0747 13.032,-29.1067 29.107,-29.1067 H 234.3 c 16.075,0 29.107,13.032 29.107,29.1067 v 130.792 c 0,16.075 -13.032,29.107 -29.107,29.107 H 103.507 C 87.432,225.611 74.4,212.579 74.4,196.504 Z"
         id="dp_path005" />
      <path
         inkscape:connector-curvature="0"
         style="fill:url(#grad_dp_006);fill-rule:evenodd;stroke:#d7d7d7;stroke-width:6.66666985;stroke-linejoin:round"
         d="m 74.4,65.7093 c 0,-16.0746 13.032,-29.1066 29.107,-29.1066 H 234.3 c 16.075,0 29.107,13.032 29.107,29.1066 V 196.501 c 0,16.075 -13.032,29.107 -29.107,29.107 H 103.507 C 87.432,225.608 74.4,212.576 74.4,196.501 Z"
         id="dp_path006" />
    </g>
    <path
       id="dp_path017"
       d="m 138.945,204.125 v -75.424 l -37.794,-0.166 68.03,-75.4243 68.031,75.3933 -37.795,0.031 v 75.59 z"
       inkscape:connector-curvature="0"
       style="fill:none;fill-rule:evenodd;stroke:#000000;stroke-width:14;stroke-linejoin:round" />
    <path
       id="dp_path018"
       d="m 138.945,204.125 v -75.59 h -37.796 l 68.032,-75.4243 68.031,75.5903 h -37.795 v 75.591 z"
       style="fill:url(#grad_dp_017);fill-rule:evenodd;stroke:#d8eefb;stroke-width:4.66666985;stroke-linejoin:round"
       inkscape:connector-curvature="0" />
    <path
       id="dp_path022"
       d="m 138.945,205.016 v -75.591 h -37.796 l 68.032,-75.4237 68.031,75.5907 h -37.795 v 75.591 z"
       style="fill:url(#grad_dp_020);fill-rule:evenodd;stroke:#d8eefb;stroke-width:4.66666985;stroke-linejoin:round"
       inkscape:connector-curvature="0" />
  </g>
  <path
     inkscape:connector-curvature="0"
     style="fill:url(#grad_dp_021);fill-rule:evenodd;stroke:#d8eefb;stroke-width:4.66666985;stroke-linejoin:round"
     d="m 169.588,431.712 v -37.796 c 0.04,-14.787 -1.651,-15.615 -15.119,-15.119 v 37.795 l -60.0623,-68.031 60.0643,-68.03 -0.002,37.794 h 45.355 c 22.879,-0.321 29.359,7.358 30.237,30.236 0,27.716 -0.001,55.434 -0.001,83.15 z"
     id="dp_path023" />
  <g
     id="g4881">
    <path
       id="dp_path003"
       d="m 302.363,293.677 c 0,-16.074 13.032,-29.106 29.106,-29.106 h 130.794 c 16.074,0 29.106,13.032 29.106,29.106 v 130.792 c 0,16.075 -13.032,29.107 -29.106,29.107 H 331.469 c -16.074,0 -29.106,-13.032 -29.106,-29.107 z"
       style="fill:url(#grad_dp_003);fill-rule:evenodd;stroke:#545454;stroke-width:14;stroke-linejoin:round"
       inkscape:connector-curvature="0" />
    <path
       id="dp_path004"
       d="m 302.363,293.675 c 0,-16.075 13.032,-29.107 29.106,-29.107 h 130.794 c 16.074,0 29.106,13.032 29.106,29.107 v 130.792 c 0,16.074 -13.032,29.106 -29.106,29.106 H 331.469 c -16.074,0 -29.106,-13.032 -29.106,-29.106 z"
       style="fill:url(#grad_dp_004);fill-rule:evenodd;stroke:#d7d7d7;stroke-width:6.66666985;stroke-linejoin:round"
       inkscape:connector-curvature="0" />
    <path
       id="dp_path024"
       d="m 397.744,431.712 v -37.796 c -0.04,-14.787 1.651,-15.615 15.119,-15.119 v 37.795 l 60.062,-68.031 -60.064,-68.03 0.002,37.794 h -45.355 c -22.879,-0.321 -29.359,7.358 -30.237,30.236 0,27.716 10e-4,55.434 10e-4,83.15 z"
       style="fill:url(#grad_dp_022);fill-rule:evenodd;stroke:#000000;stroke-width:14;stroke-linejoin:round"
       inkscape:connector-curvature="0" />
    <path
       id="dp_path025"
       d="m 472.925,347.717 -60.064,-67.188 v 37.796 h -45.353 c -14.944,-0.25 -30.332,14.519 -30.236,30.236 0.096,15.717 0.012,55.152 0,83.15 h 60.472 v -37.795 c 0.539,-16.04 -0.421,-15.579 15.117,-15.119 0,12.599 0.002,25.196 0.002,37.795 0,0 60.062,-68.875 60.062,-68.875 z"
       style="fill:url(#grad_dp_023);fill-rule:evenodd;stroke:#d8eefb;stroke-width:4.66666985;stroke-linejoin:round"
       inkscape:connector-curvature="0" />
    <path
       id="dp_path026"
       d="m 397.744,431.712 v -37.796 c -0.04,-14.787 1.651,-15.615 15.119,-15.119 v 37.795 l 60.062,-68.031 -60.064,-68.03 0.002,37.794 h -45.355 c -22.879,-0.321 -29.359,7.358 -30.237,30.236 0,27.716 10e-4,55.434 10e-4,83.15 z"
       style="fill:url(#grad_dp_024);fill-rule:evenodd;stroke:#d8eefb;stroke-width:4.66666985;stroke-linejoin:round"
       inkscape:connector-curvature="0" />
  </g>
  <path
     inkscape:connector-curvature="0"
     style="fill:url(#grad_dp_025);fill-rule:evenodd;stroke:#000000;stroke-width:14;stroke-linejoin:round"
     d="m 117.563,609.172 c 10.217,0 18.5,8.283 18.5,18.5 0,10.217 -8.283,18.5 -18.5,18.5 -10.218,0 -18.5003,-8.283 -18.5003,-18.5 0,-10.217 8.2823,-18.5 18.5003,-18.5 z"
     id="dp_path027" />
  <path
     inkscape:connector-curvature="0"
     style="fill:url(#grad_dp_026);fill-rule:evenodd;stroke:#000000;stroke-width:14;stroke-linejoin:round"
     d="m 162.915,608.903 c 10.217,0 18.5,8.282 18.5,18.5 0,10.217 -8.283,18.5 -18.5,18.5 -10.218,0 -18.5,-8.283 -18.5,-18.5 0,-10.218 8.282,-18.5 18.5,-18.5 z"
     id="dp_path028" />
  <path
     style="fill:none;fill-rule:evenodd;stroke:#000000;stroke-width:14;stroke-linejoin:round"
     inkscape:connector-curvature="0"
     d="m 87.3253,593.696 c 43.7037,0 81.5507,0.075 105.8257,0.075 l -7.559,22.678 c -11.864,-20.532 -35.489,-20.468 -45.353,0 v -0.076 c -8.431,-19.569 -33.758,-23.597 -45.355,0 0,0 -7.5587,-22.677 -7.5587,-22.677 z"
     id="dp_path029" />
  <path
     inkscape:connector-curvature="0"
     style="fill:url(#grad_dp_027);fill-rule:evenodd;stroke:#d8eefb;stroke-width:4;stroke-linejoin:round"
     d="m 117.561,609.247 c 10.218,0 18.5,8.282 18.5,18.5 0,10.217 -8.282,18.5 -18.5,18.5 -10.217,0 -18.4997,-8.283 -18.4997,-18.5 0,-10.218 8.2827,-18.5 18.4997,-18.5 z"
     id="dp_path030" />
  <path
     inkscape:connector-curvature="0"
     style="fill:url(#grad_dp_028);fill-rule:evenodd;stroke:#d8eefb;stroke-width:4;stroke-linejoin:round"
     d="m 162.916,609.172 c 10.217,0 18.5,8.283 18.5,18.5 0,10.217 -8.283,18.5 -18.5,18.5 -10.217,0 -18.5,-8.283 -18.5,-18.5 0,-10.217 8.283,-18.5 18.5,-18.5 z"
     id="dp_path031" />
  <path
     inkscape:connector-curvature="0"
     style="fill:url(#grad_dp_029);fill-rule:evenodd;stroke:#d8eefb;stroke-width:4;stroke-linejoin:round"
     d="m 87.3253,593.769 c 43.7037,0 81.5537,-0.073 105.8277,-0.073 l -7.56,22.676 c -8.802,-19 -37.53,-18.683 -45.353,0 l -0.001,0.075 c -9.962,-19.314 -37.84,-18.24 -45.355,0 0,0 -7.5587,-22.678 -7.5587,-22.678 z"
     id="dp_path032" />
  <path
     inkscape:connector-curvature="0"
     style="fill:url(#grad_dp_030);fill-rule:evenodd;stroke:#d8eefb;stroke-width:4.66666985;stroke-linejoin:round"
     d="m 169.588,433.133 v -37.796 c 0.04,-14.786 -1.651,-15.614 -15.119,-15.118 v 37.794 l -60.0623,-68.03 60.0643,-68.031 -0.002,37.795 h 45.355 c 22.879,-0.322 29.359,7.357 30.237,30.236 0,27.716 -0.001,55.433 -0.001,83.149 z"
     id="dp_path033" />
  <path
     inkscape:connector-curvature="0"
     style="fill:url(#grad_dp_031);fill-rule:evenodd;stroke:#d8eefb;stroke-width:4.66666985;stroke-linejoin:round"
     d="m 438.425,604.725 0.002,-37.794 c -0.295,-6.434 -10.622,-19.222 -30.236,0 l -7.56,7.56 -15.118,-15.119 15.118,-15.119 c 22.986,-18.937 60.09,-6.634 60.473,22.678 v 37.794 h 15.117 L 450,634.961 423.308,604.725 Z"
     id="dp_path034" />
  <path
     inkscape:connector-curvature="0"
     style="fill:url(#grad_dp_032);fill-rule:evenodd;stroke:#000000;stroke-width:14;stroke-linejoin:round"
     d="m 340.161,608.824 c 10.218,0 18.5,8.283 18.5,18.5 0,10.217 -8.282,18.5 -18.5,18.5 -10.217,0 -18.5,-8.283 -18.5,-18.5 0,-10.217 8.283,-18.5 18.5,-18.5 z"
     id="dp_path035" />
  <path
     inkscape:connector-curvature="0"
     style="fill:url(#grad_dp_033);fill-rule:evenodd;stroke:#000000;stroke-width:14;stroke-linejoin:round"
     d="m 385.513,608.555 c 10.218,0 18.5,8.282 18.5,18.5 0,10.217 -8.282,18.5 -18.5,18.5 -10.217,0 -18.5,-8.283 -18.5,-18.5 0,-10.218 8.283,-18.5 18.5,-18.5 z"
     id="dp_path036" />
  <path
     style="fill:none;fill-rule:evenodd;stroke:#000000;stroke-width:14;stroke-linejoin:round"
     inkscape:connector-curvature="0"
     d="m 309.924,593.348 c 43.704,0 81.551,0.075 105.825,0.075 l -7.558,22.678 c -11.864,-20.532 -35.49,-20.468 -45.354,0 v -0.076 c -8.43,-19.569 -33.757,-23.597 -45.354,0 0,0 -7.559,-22.677 -7.559,-22.677 z"
     id="dp_path037" />
  <path
     inkscape:connector-curvature="0"
     style="fill:url(#grad_dp_034);fill-rule:evenodd;stroke:#d8eefb;stroke-width:4;stroke-linejoin:round"
     d="m 340.16,608.899 c 10.217,0 18.5,8.282 18.5,18.5 0,10.217 -8.283,18.5 -18.5,18.5 -10.217,0 -18.5,-8.283 -18.5,-18.5 0,-10.218 8.283,-18.5 18.5,-18.5 z"
     id="dp_path038" />
  <path
     inkscape:connector-curvature="0"
     style="fill:url(#grad_dp_035);fill-rule:evenodd;stroke:#d8eefb;stroke-width:4;stroke-linejoin:round"
     d="m 385.515,608.824 c 10.217,0 18.5,8.283 18.5,18.5 0,10.217 -8.283,18.5 -18.5,18.5 -10.218,0 -18.5,-8.283 -18.5,-18.5 0,-10.217 8.282,-18.5 18.5,-18.5 z"
     id="dp_path039" />
  <path
     inkscape:connector-curvature="0"
     style="fill:url(#grad_dp_036);fill-rule:evenodd;stroke:#d8eefb;stroke-width:4;stroke-linejoin:round"
     d="m 309.924,593.421 c 43.704,0 81.553,-0.073 105.828,-0.073 l -7.56,22.676 c -8.803,-19 -37.531,-18.683 -45.353,0 l -0.002,0.075 c -9.961,-19.314 -37.84,-18.24 -45.354,0 0,0 -7.559,-22.678 -7.559,-22.678 z"
     id="dp_path040" />
  <path
     inkscape:connector-curvature="0"
     style="fill:url(#grad_dp_009-6);fill-rule:evenodd;stroke:#545454;stroke-width:14;stroke-linejoin:round"
     d="m 75.679,747.99802 c 0,-16.074 13.032,-29.106 29.107,-29.106 h 130.793 c 16.075,0 29.107,13.032 29.107,29.106 v 130.792 c 0,16.075 -13.032,29.107 -29.107,29.107 H 104.786 c -16.075,0 -29.107,-13.032 -29.107,-29.107 z"
     id="dp_path009-0"
     inkscape:export-xdpi="27.888432"
     inkscape:export-ydpi="27.888432"
     inkscape:export-filename="/home/greggo/Code/boxbot/BoxBotProj/Images/blankCommand.png" />
  <path
     inkscape:connector-curvature="0"
     style="fill:#2e2e2e;fill-rule:evenodd;stroke:#ffff00;stroke-width:12;stroke-linejoin:round;fill-opacity:1;stroke-opacity:1;filter:url(#filter1260);stroke-miterlimit:4;stroke-dasharray:none"
     d="m 75.679,747.99602 c 0,-16.075 13.032,-29.107 29.107,-29.107 h 130.793 c 16.075,0 29.107,13.032 29.107,29.107 v 130.792 c 0,16.074 -13.032,29.106 -29.107,29.106 H 104.786 c -16.075,0 -29.107,-13.032 -29.107,-29.106 z"
     id="dp_path010-9"
     inkscape:export-xdpi="27.888432"
     inkscape:export-ydpi="27.888432"
     inkscape:export-filename="/home/greggo/Code/boxbot/BoxBotProj/Images/blankCommand.png" />
  <path
     inkscape:connector-curvature="0"
     style="fill:url(#grad_dp_011-3);fill-rule:evenodd;stroke:#545454;stroke-width:14;stroke-linejoin:round"
     d="m 300,747.52002 c 0,-16.075 13.032,-29.107 29.107,-29.107 H 459.9 c 16.075,0 29.107,13.032 29.107,29.107 v 130.792 c 0,16.074 -13.032,29.106 -29.107,29.106 H 329.107 c -16.075,0 -29.107,-13.032 -29.107,-29.106 z"
     id="dp_path011-3" />
  <path
     inkscape:connector-curvature="0"
     style="fill:url(#grad_dp_012-5);fill-rule:evenodd;stroke:#d7d7d7;stroke-width:6.66666985;stroke-linejoin:round"
     d="m 300.187,747.14002 c 0,-16.075 13.032,-29.107 29.107,-29.107 h 130.793 c 16.075,0 29.107,13.032 29.107,29.107 v 130.792 c 0,16.074 -13.032,29.106 -29.107,29.106 H 329.294 c -16.075,0 -29.107,-13.032 -29.107,-29.106 z"
     id="dp_path012-6" />
</svg>
